<svg t="1633500633981" class="icon" viewBox="0 0 1024 1024" version="1.1" xmlns="http://www.w3.org/2000/svg" p-id="3453" width="200" height="200"><path d="M919.561369 245.727541c-0.899486-28.28623-24.311709-55.009871-52.010561-59.8409 0 0-107.385752-16.977673-167.643138-38.420031-75.231425-26.770713-149.681044-85.617983-149.681044-85.617983-23.220864-16.58063-58.83806-15.552208-80.374562 2.372024 0 0-52.704362 53.179177-151.044088 84.22117-90.852194 36.510542-163.464979 40.248679-163.464979 40.248679-27.402093 3.571339-50.991348 28.867468-51.522444 57.147558 0 0-3.690042 145.387251 0.966001 272.985348 1.759063 228.268914 271.994788 453.937606 408.55193 453.937606 134.416386 0 366.709963-157.224858 403.249157-450.619024C925.617295 347.953783 919.561369 245.727541 919.561369 245.727541zM709.887976 445.981401 477.54835 681.152515c-9.899464 10.018168-26.696012 11.174504-38.07927 2.124384l-121.329323-96.414887c-22.289656-17.711384-24.614607-48.538483-4.89038-69.169359 19.587104-20.48966 53.223179-23.199375 75.962066-5.403057l56.322773 44.083008 193.563484-182.358281c20.162202-18.995633 52.216245-18.458397 71.897493 0.325411-0.281409-0.293689-0.35918-0.693802-0.649799-0.984421l1.64036 1.64343c-0.290619-0.290619-0.696872-0.3776-0.99056-0.659009C729.922265 394.23076 729.659275 425.969625 709.887976 445.981401z" p-id="3454"></path></svg>