<!-- <svg width="128" height="100" xmlns="http://www.w3.org/2000/svg"><path d="M27.429 63.638c0-2.508-.893-4.65-2.679-6.424-1.786-1.775-3.94-2.662-6.464-2.662-2.524 0-4.679.887-6.465 2.662-1.785 1.774-2.678 3.916-2.678 6.424 0 2.508.893 4.65 2.678 6.424 1.786 1.775 3.94 2.662 6.465 2.662 2.524 0 4.678-.887 6.464-2.662 1.786-1.775 2.679-3.916 2.679-6.424zm13.714-31.801c0-2.508-.893-4.65-2.679-6.424-1.785-1.775-3.94-2.662-6.464-2.662-2.524 0-4.679.887-6.464 2.662-1.786 1.774-2.679 3.916-2.679 6.424 0 2.508.893 4.65 2.679 6.424 1.785 1.774 3.94 2.662 6.464 2.662 2.524 0 4.679-.888 6.464-2.662 1.786-1.775 2.679-3.916 2.679-6.424zM71.714 65.98l7.215-27.116c.285-1.23.107-2.378-.536-3.443-.643-1.064-1.56-1.762-2.75-2.094-1.19-.33-2.333-.177-3.429.462-1.095.639-1.81 1.573-2.143 2.804l-7.214 27.116c-2.857.237-5.405 1.266-7.643 3.088-2.238 1.822-3.738 4.152-4.5 6.992-.952 3.644-.476 7.098 1.429 10.364 1.905 3.265 4.69 5.37 8.357 6.317 3.667.947 7.143.474 10.429-1.42 3.285-1.892 5.404-4.66 6.357-8.305.762-2.84.619-5.607-.429-8.305-1.047-2.697-2.762-4.85-5.143-6.46zm47.143-2.342c0-2.508-.893-4.65-2.678-6.424-1.786-1.775-3.94-2.662-6.465-2.662-2.524 0-4.678.887-6.464 2.662-1.786 1.774-2.679 3.916-2.679 6.424 0 2.508.893 4.65 2.679 6.424 1.786 1.775 3.94 2.662 6.464 2.662 2.524 0 4.679-.887 6.465-2.662 1.785-1.775 2.678-3.916 2.678-6.424zm-45.714-45.43c0-2.509-.893-4.65-2.679-6.425C68.68 10.01 66.524 9.122 64 9.122c-2.524 0-4.679.887-6.464 2.661-1.786 1.775-2.679 3.916-2.679 6.425 0 2.508.893 4.65 2.679 6.424 1.785 1.774 3.94 2.662 6.464 2.662 2.524 0 4.679-.888 6.464-2.662 1.786-1.775 2.679-3.916 2.679-6.424zm32 13.629c0-2.508-.893-4.65-2.679-6.424-1.785-1.775-3.94-2.662-6.464-2.662-2.524 0-4.679.887-6.464 2.662-1.786 1.774-2.679 3.916-2.679 6.424 0 2.508.893 4.65 2.679 6.424 1.785 1.774 3.94 2.662 6.464 2.662 2.524 0 4.679-.888 6.464-2.662 1.786-1.775 2.679-3.916 2.679-6.424zM128 63.638c0 12.351-3.357 23.78-10.071 34.286-.905 1.372-2.19 2.058-3.858 2.058H13.93c-1.667 0-2.953-.686-3.858-2.058C3.357 87.465 0 76.037 0 63.638c0-8.613 1.69-16.847 5.071-24.703C8.452 31.08 13 24.312 18.714 18.634c5.715-5.68 12.524-10.199 20.429-13.559C47.048 1.715 55.333.035 64 .035c8.667 0 16.952 1.68 24.857 5.04 7.905 3.36 14.714 7.88 20.429 13.559 5.714 5.678 10.262 12.446 13.643 20.301 3.38 7.856 5.071 16.09 5.071 24.703z"/></svg> -->
<svg t="1633434878308" class="icon" viewBox="0 0 1024 1024" version="1.1" xmlns="http://www.w3.org/2000/svg" p-id="2525" width="200" height="200"><path d="M321.456 225.984h318v220H321.456z" fill="#84DBFF" p-id="2526"></path><path d="M349.2 251.472h290.256v-25.488H321.456v220h27.744z" fill="#A9EBFF" p-id="2527"></path><path d="M49.328 578.016h318v220H49.328z" fill="#F9DD9D" p-id="2528"></path><path d="M79.376 605.664h287.952v-27.648H49.328v220h30.048z" fill="#FFE8BB" p-id="2529"></path><path d="M593.568 578.016h318v220H593.568z" fill="#F9DD9D" p-id="2530"></path><path d="M623.616 605.664h287.952v-27.648H593.568v220h30.048z" fill="#FFE8BB" p-id="2531"></path><path d="M639.456 453.984H321.456a8 8 0 0 1-8-8v-220a8 8 0 0 1 8-8h318a8 8 0 0 1 8 8v220a8 8 0 0 1-8 8z m-310-16h302v-204H329.456v204z" fill="#63312D" p-id="2532"></path><path d="M639.456 225.984h63.088v220h-63.088z" fill="#52BADB" p-id="2533"></path><path d="M702.544 453.984h-63.088a8 8 0 0 1-8-8v-220a8 8 0 0 1 8-8h63.088a8 8 0 0 1 8 8v220a8 8 0 0 1-8 8z m-55.088-16h47.088v-204h-47.088v204zM367.328 806.016H49.328a8 8 0 0 1-8-8v-220a8 8 0 0 1 8-8h318a8 8 0 0 1 8 8v220c0 4.432-3.568 8-8 8z m-310-16h302v-204H57.328v204z" fill="#63312D" p-id="2534"></path><path d="M367.328 578.016h63.088v220h-63.088zM911.568 578.016h63.088v220h-63.088z" fill="#EFC36A" p-id="2535"></path><path d="M430.432 806.016h-63.088a8 8 0 0 1-8-8v-220a8 8 0 0 1 8-8h63.088a8 8 0 0 1 8 8v220a8 8 0 0 1-8 8z m-55.104-16h47.088v-204h-47.088v204zM911.568 806.016H593.568a8 8 0 0 1-8-8v-220a8 8 0 0 1 8-8h318a8 8 0 0 1 8 8v220c0 4.432-3.568 8-8 8z m-310-16h302v-204H601.568v204z" fill="#63312D" p-id="2536"></path><path d="M974.672 806.016h-63.088a8 8 0 0 1-8-8v-220a8 8 0 0 1 8-8h63.088a8 8 0 0 1 8 8v220a8 8 0 0 1-8 8z m-55.104-16h47.088v-204h-47.088v204zM802.992 578.016h-16v-58.048H236.992v58.048h-16v-66.048a8 8 0 0 1 8-8h566a8 8 0 0 1 8 8v66.048z" fill="#63312D" p-id="2537"></path><path d="M504 445.984h16v66h-16z" fill="#63312D" p-id="2538"></path></svg>