<svg t="1634129147984" class="icon" viewBox="0 0 1024 1024" version="1.1" xmlns="http://www.w3.org/2000/svg" p-id="9995" width="200" height="200"><path d="M947.701961 623.435294l-694.713725 0q-11.043137 0-23.090196 6.023529t-22.588235 18.070588-17.066667 28.611765-6.52549 37.647059 5.521569 39.152941 14.556863 32.12549 22.086275 22.086275 28.109804 8.031373l693.709804 0q-12.047059-12.047059-21.082353-27.105882-8.031373-13.05098-14.556863-31.121569t-6.52549-41.160784q0-26.101961 6.52549-43.168627t14.556863-28.109804q9.035294-12.047059 21.082353-21.082353zM947.701961 897.505882q0 17.066667-22.086275 17.066667l-733.866667 0q-34.133333 0-57.223529-14.054902t-37.647059-38.65098-20.580392-58.729412-6.023529-73.286275l0-582.27451q0-77.301961 41.160784-111.937255t117.458824-34.635294l34.133333 0 68.266667 0 93.364706 0q51.2 0 104.909804-0.501961t104.909804-0.501961l94.368627 0 70.27451 0 35.137255 0q28.109804 0 49.192157 11.545098t35.137255 32.12549 21.584314 48.690196 7.529412 60.235294l0 406.588235q-191.74902 0-345.34902-1.003922l-128.501961 0q-64.25098 0-114.94902-0.501961t-83.827451-0.501961l-37.145098 0q-21.082353 0-41.160784 12.54902t-36.141176 34.133333-26.101961 50.196078-10.039216 59.733333q0 38.14902 10.541176 68.768627t27.607843 51.701961 37.647059 32.627451 40.658824 11.545098l685.678431 0q8.031373 0 14.556863 4.517647t6.52549 14.556863zM515.011765 0l0 388.517647 77.301961-108.423529 76.298039 108.423529 0-388.517647-153.6 0z" p-id="9996"></path></svg>