<svg t="1634129218126" class="icon" viewBox="0 0 1024 1024" version="1.1" xmlns="http://www.w3.org/2000/svg" p-id="12275" width="200" height="200"><path d="M1021.952 86.016c-2.048-12.288-8.192-24.576-20.48-30.72-12.288-8.192-28.672-8.192-43.008 0-10.24 6.144-18.432 18.432-20.48 30.72h-2.048V940.032H172.032c-49.152 0-88.064-38.912-88.064-88.064v-81.92c0-47.104 38.912-88.064 88.064-88.064h679.936V0H172.032C126.976 0 81.92 18.432 51.2 51.2 18.432 81.92 0 126.976 0 172.032v679.936c0 45.056 18.432 90.112 51.2 120.832C81.92 1005.568 126.976 1024 172.032 1024H1024l-2.048-937.984zM210.944 768c-22.528 0-40.96 18.432-40.96 40.96s18.432 40.96 40.96 40.96h598.016c22.528-2.048 38.912-20.48 38.912-40.96 0-22.528-16.384-40.96-38.912-40.96H210.944z" p-id="12276"></path></svg>