<svg t="1634129194402" class="icon" viewBox="0 0 1024 1024" version="1.1" xmlns="http://www.w3.org/2000/svg" p-id="11638" width="200" height="200"><path d="M913.493333 464.426667a53.76 53.76 0 0 0-37.76-39.466667l-13.013333-2.986667a131.413333 131.413333 0 0 1-89.6-156.373333l3.84-12.373333a54.186667 54.186667 0 0 0-15.146667-52.48A369.92 369.92 0 0 0 714.666667 170.666667a372.693333 372.693333 0 0 0-49.92-25.6 53.546667 53.546667 0 0 0-52.906667 13.013333l-9.173333 9.813333a130.773333 130.773333 0 0 1-180.053334 0l-8.746666-9.6a53.546667 53.546667 0 0 0-52.906667-13.013333A370.56 370.56 0 0 0 310.613333 170.666667a369.493333 369.493333 0 0 0-47.146666 30.506666 53.76 53.76 0 0 0-15.36 52.48l3.84 12.373334a131.2 131.2 0 0 1-89.813334 155.946666l-12.8 2.986667a53.76 53.76 0 0 0-37.546666 39.466667 368.426667 368.426667 0 0 0-2.773334 56.32A366.506667 366.506667 0 0 0 111.786667 576 53.973333 53.973333 0 0 0 149.333333 616.533333l12.373334 2.773334a131.413333 131.413333 0 0 1 90.24 156.8l-3.84 12.373333a53.76 53.76 0 0 0 15.36 52.48 362.666667 362.666667 0 0 0 47.146666 30.506667A362.666667 362.666667 0 0 0 360.746667 896a53.76 53.76 0 0 0 52.906666-12.8l8.746667-8.533333a130.986667 130.986667 0 0 1 180.48 0l8.746667 9.386666a53.76 53.76 0 0 0 52.906666 12.8 384 384 0 0 0 50.133334-25.6 366.293333 366.293333 0 0 0 47.146666-30.506666 53.973333 53.973333 0 0 0 15.36-52.48l-3.84-12.8A131.413333 131.413333 0 0 1 863.573333 618.666667l12.373334-2.773334A53.546667 53.546667 0 0 0 913.706667 576a368 368 0 0 0 3.626666-55.466667 371.413333 371.413333 0 0 0-3.84-56.106666zM512 642.133333a130.133333 130.133333 0 1 1 129.706667-130.133333A129.92 129.92 0 0 1 512 642.133333z" p-id="11639"></path></svg>