<svg t="1634462155095" class="icon" viewBox="0 0 1033 1024" version="1.1" xmlns="http://www.w3.org/2000/svg" p-id="2457" width="200" height="200"><path d="M455.058937 534.857047L50.579009 342.491367a73.142844 73.142844 0 0 1 0-136.411404L455.058937 13.714283a146.285688 146.285688 0 0 1 123.245692 0l404.479928 192.36568a73.142844 73.142844 0 0 1 0 136.411404L578.304629 534.857047a146.285688 146.285688 0 0 1-123.245692 0z" p-id="2458"></path><path d="M516.681783 792.137001a191.817109 191.817109 0 0 1-84.845699-19.748567L35.036155 575.268469a54.857133 54.857133 0 1 1 48.639991-97.828554L480.110361 674.55988a83.748556 83.748556 0 0 0 73.142844 0l396.799929-197.119965a54.857133 54.857133 0 1 1 48.639991 97.828554L601.527482 772.388434A191.268537 191.268537 0 0 1 516.681783 792.137001z" p-id="2459"></path><path d="M516.681783 1023.999817a191.268537 191.268537 0 0 1-84.845699-19.748568L35.036155 807.131284a54.857133 54.857133 0 1 1 48.639991-97.828554L480.110361 906.422695a82.468557 82.468557 0 0 0 73.142844 0l396.799929-197.119965a54.857133 54.857133 0 1 1 48.639991 97.828554L601.527482 1004.251249A191.268537 191.268537 0 0 1 516.681783 1023.999817z" p-id="2460"></path></svg>